<?xml version="1.0" encoding="utf-8"?>
<!-- Generator: Adobe Illustrator 24.0.1, SVG Export Plug-In . SVG Version: 6.00 Build 0)  -->
<svg version="1.1" xmlns="http://www.w3.org/2000/svg" xmlns:xlink="http://www.w3.org/1999/xlink" x="0px" y="0px"
	 viewBox="0 0 182.6 44.3" style="enable-background:new 0 0 182.6 44.3;" xml:space="preserve">
<style type="text/css">
	.st0{fill:#16B9D4;}
</style>
<g id="Layer_1">
	<g id="Layer_5">
		<rect width="182.6" height="44.3"/>
	</g>
</g>
<g id="Layer_1_copy">
	<g>
		<path class="st0" d="M66.7,21.8c0,6.2-3.1,9.2-9.2,9.2H52V12.8h5.5c3.1,0,5.4,0.7,6.9,2.2S66.7,18.8,66.7,21.8z M65.3,21.8
			c0-1.2-0.1-2.3-0.4-3.2c-0.2-0.9-0.7-1.7-1.3-2.4c-0.6-0.7-1.4-1.2-2.4-1.5c-1-0.3-2.3-0.5-3.8-0.5h-4.1v15.5h4.1
			c1.5,0,2.8-0.2,3.8-0.5c1-0.4,1.8-0.9,2.4-1.6s1-1.5,1.3-2.5C65.2,24.1,65.3,23,65.3,21.8z"/>
		<path class="st0" d="M81.7,24.1h-10v-1.4h10V24.1z"/>
		<path class="st0" d="M101.7,12.8L94.6,31h-1.7l-7.1-18.2h1.5l6.5,16.5l6.5-16.5H101.7z"/>
		<path class="st0" d="M120,31h-1.6l-2.2-5.8h-8.9c-0.3,0.9-0.7,1.9-1,2.9c-0.4,1-0.7,2-1.1,2.9h-1.4c0.6-1.6,1.2-3.1,1.8-4.6
			c0.6-1.5,1.2-3,1.7-4.5c0.6-1.5,1.2-3,1.7-4.5c0.6-1.5,1.2-3,1.8-4.6h1.9L120,31z M115.8,24.1L111.6,14l-4,10.1H115.8z"/>
		<path class="st0" d="M130.6,31.3c-1.1,0-2-0.1-2.8-0.3c-0.8-0.2-1.4-0.5-1.9-0.9c-0.5-0.4-0.9-0.8-1.2-1.4
			c-0.3-0.5-0.5-1.1-0.7-1.7c-0.2-0.6-0.3-1.2-0.3-1.8c0-0.6-0.1-1.2-0.1-1.8V12.8h1.3v10.5c0,1.4,0.1,2.5,0.4,3.4s0.6,1.5,1.1,2
			c0.5,0.5,1.1,0.8,1.8,1c0.7,0.2,1.5,0.3,2.4,0.3c0.9,0,1.7-0.1,2.4-0.3c0.7-0.2,1.3-0.5,1.8-1c0.5-0.5,0.8-1.2,1.1-2
			c0.2-0.9,0.4-2,0.4-3.4V12.8h1.3v10.6c0,1.3-0.1,2.4-0.3,3.4c-0.2,1-0.6,1.8-1.1,2.5c-0.5,0.7-1.2,1.2-2.1,1.6
			S132,31.3,130.6,31.3z"/>
		<path class="st0" d="M153.9,31h-10.7V12.8h1.3v16.9h9.4V31z"/>
		<path class="st0" d="M170.9,14.1h-6.4V31h-1.3V14.1h-6.3v-1.3h14V14.1z"/>
	</g>
	<path class="st0" d="M44.4,22.2c0,11.6-9.4,21.1-21.1,21.1S2.3,33.9,2.3,22.2c0-11.5,9.2-20.8,20.6-21.1V2
		C11.9,2.3,3.1,11.2,3.1,22.2c0,11.2,9,20.2,20.2,20.2s20.2-9,20.2-20.2c0-5.5-2.2-10.5-5.8-14.1l-3.3,3.3c2.7,2.8,4.4,6.6,4.4,10.8
		c0,4.1-1.6,7.9-4.2,10.7l-0.6-0.6c2.3-2.5,3.8-5.8,4-9.4h-4.7c-0.4,5.2-4.7,9.3-10,9.3c-2.7,0-5.1-1.1-6.9-2.8l-3.3,3.3
		c-0.2-0.2-0.3-0.3-0.5-0.5l3.3-3.3c-1.4-1.5-2.3-3.5-2.6-5.7h1.2c0.5,4.4,4.2,7.8,8.7,7.8c2.2,0,4.3-0.8,5.8-2.2l-2.4-2.4
		c-0.8,0.6-1.7,1-2.8,1.1v-0.9c2.2-0.3,3.9-2.1,3.9-4.4c0-2.4-2-4.4-4.4-4.4s-4.4,2-4.4,4.4c0,2.4,1.9,4.4,4.3,4.4v0.9
		c-2.9-0.1-5.2-2.4-5.2-5.4s2.3-5.3,5.2-5.4v-3.4c-4.7,0.1-8.5,3.8-8.7,8.5h-1.2c0.2-5.4,4.6-9.7,10-9.7c2.5,0,4.8,0.9,6.5,2.4
		L29,15.5c-1.4-1.2-3.2-1.9-5.1-2v3.5c2.7,0.3,4.8,2.6,4.8,5.3c0,1.4-0.6,2.8-1.5,3.7l2.4,2.4c1.6-1.6,2.5-3.8,2.5-6.2
		c0-2.2-0.8-4.3-2.2-5.8l0.9-0.9c1.6,1.8,2.6,4.1,2.6,6.7v0h4.7v0c0-4-1.6-7.6-4.2-10.2c-0.2-0.2-0.3-0.3-0.5-0.5
		c-2.6-2.5-6.2-4-10.1-4c-3.8,0-7.3,1.5-9.9,3.8l-0.6-0.6c2.8-2.5,6.4-4.1,10.5-4.1c4.1,0,7.9,1.6,10.6,4.2l3.3-3.3
		c-3.4-3.3-8-5.4-13.1-5.6V1.2C35.5,1.6,44.4,10.9,44.4,22.2z"/>
	<path class="st0" d="M33.7,33.8c-2.7,2.4-6.4,3.9-10.3,3.9c-8.6,0-15.5-7-15.5-15.5c0-4,1.5-7.7,4.1-10.5l0.6,0.6
		c-2.4,2.6-3.8,6.1-3.8,9.9c0,3.9,1.5,7.4,4,10.1c0.2,0.2,0.3,0.3,0.5,0.5c2.6,2.6,6.3,4.2,10.2,4.2c3.7,0,7.1-1.4,9.7-3.7
		L33.7,33.8z"/>
</g>
</svg>
